<svg xmlns="http://www.w3.org/2000/svg" xmlns:xlink="http://www.w3.org/1999/xlink" viewBox="0 0 158.57 40.47"><defs><style>.cls-1{fill:#3f3f3f;}.cls-2{fill:url(#New_Gradient_Swatch_1);}.cls-3{fill:url(#New_Gradient_Swatch_1-2);}.cls-4{fill:url(#New_Gradient_Swatch_1-3);}</style><linearGradient id="New_Gradient_Swatch_1" y1="15.83" x2="43.32" y2="15.83" gradientUnits="userSpaceOnUse"><stop offset="0" stop-color="#27aae1"/><stop offset="1" stop-color="#069"/></linearGradient><linearGradient id="New_Gradient_Swatch_1-2" x1="44.84" y1="9.91" x2="56.98" y2="9.91" xlink:href="#New_Gradient_Swatch_1"/><linearGradient id="New_Gradient_Swatch_1-3" x1="23.39" y1="34.2" x2="38.11" y2="34.2" xlink:href="#New_Gradient_Swatch_1"/></defs><g id="图层_2" data-name="图层 2"><g id="Layer_1" data-name="Layer 1"><path class="cls-1" d="M54.37,33.55a5.29,5.29,0,0,1-2.22-2.2,7.3,7.3,0,0,1-.81-3.57,7.84,7.84,0,0,1,.81-3.68,5.66,5.66,0,0,1,2.25-2.37,6.66,6.66,0,0,1,3.32-.81,6.43,6.43,0,0,1,3.26.8A5.6,5.6,0,0,1,63.18,24,7.84,7.84,0,0,1,64,27.65a7.49,7.49,0,0,1-.81,3.61,5.43,5.43,0,0,1-2.27,2.26,6.81,6.81,0,0,1-3.3.77A6.73,6.73,0,0,1,54.37,33.55Zm6.08-5.77a6,6,0,0,0-.7-3.18,2.32,2.32,0,0,0-2.11-1.12,2.29,2.29,0,0,0-2.12,1.13,6,6,0,0,0-.69,3.12,5,5,0,0,0,.75,3,2.52,2.52,0,0,0,2.18,1Q60.44,31.73,60.45,27.78Z"/><path class="cls-1" d="M65.48,24.35q0-1.47-.09-3.18h3.26a9.92,9.92,0,0,1,.23,1.66,6.24,6.24,0,0,1,1.73-1.4,4.73,4.73,0,0,1,4.53.14,4.64,4.64,0,0,1,1.76,2,8.07,8.07,0,0,1,.67,3.52,8.67,8.67,0,0,1-.8,3.92,5.62,5.62,0,0,1-2.22,2.44,6.35,6.35,0,0,1-3.24.83,8,8,0,0,1-2.4-.4v5.26l-3.43.25Zm7.76,6.32a5.51,5.51,0,0,0,.84-3.32,4.76,4.76,0,0,0-.67-2.86,2.14,2.14,0,0,0-1.79-.88,2.84,2.84,0,0,0-1.41.36,5.8,5.8,0,0,0-1.3,1V31.4a3.81,3.81,0,0,0,.9.29,4.83,4.83,0,0,0,1.06.11A2.76,2.76,0,0,0,73.24,30.67Z"/><path class="cls-1" d="M90,28.18H81.71a4,4,0,0,0,1.08,2.69,3.63,3.63,0,0,0,2.53.84,8.15,8.15,0,0,0,1.87-.22A10.74,10.74,0,0,0,89,30.91l.74,2.31a11.56,11.56,0,0,1-5,1.07,6.46,6.46,0,0,1-4.85-1.69,6.61,6.61,0,0,1-1.65-4.8A8.18,8.18,0,0,1,79,24.1a5.65,5.65,0,0,1,2.16-2.37,6.24,6.24,0,0,1,3.2-.81,5.45,5.45,0,0,1,3.16.87,5.13,5.13,0,0,1,1.88,2.35A8.48,8.48,0,0,1,90,27.42ZM86.72,26.1A3.29,3.29,0,0,0,86,24a2.12,2.12,0,0,0-1.67-.7,2.23,2.23,0,0,0-1.69.69,3.79,3.79,0,0,0-.89,2.09Z"/><path class="cls-1" d="M91.55,24.43c0-1.2,0-2.29-.1-3.26h3.24c0,.26.1.59.14,1s.07.74.09,1A11.32,11.32,0,0,1,96.08,22a4.67,4.67,0,0,1,1.35-.79,4.84,4.84,0,0,1,1.81-.31,4,4,0,0,1,2.16.55,3.56,3.56,0,0,1,1.39,1.65,6.46,6.46,0,0,1,.49,2.67v8.26H99.89V26a3,3,0,0,0-.47-1.84,1.69,1.69,0,0,0-1.4-.59,3.11,3.11,0,0,0-1.61.43A6.86,6.86,0,0,0,95,25.22v8.83H91.55Z"/><path class="cls-1" d="M106.14,16.81h9.47l-.29,1.31h-7.73v6.35h7.34v1.29h-7.34v7h8.1l-.25,1.32h-9.3Z"/><path class="cls-1" d="M119.82,33.08a5.93,5.93,0,0,1-.93-3.65V21.32h1.39v8.06a4.48,4.48,0,0,0,.7,2.8,2.46,2.46,0,0,0,2,.89,4.64,4.64,0,0,0,2.33-.65,8.62,8.62,0,0,0,2-1.62V21.32h1.4v9.52c0,.89,0,2,.11,3.21h-1.23q-.08-.46-.24-1.95a9.78,9.78,0,0,1-2.15,1.59,5.21,5.21,0,0,1-2.52.6A3.45,3.45,0,0,1,119.82,33.08Z"/><path class="cls-1" d="M133.73,33.58a3.22,3.22,0,0,1-.59-2.11V15.78l1.42-.24v15.7a2.7,2.7,0,0,0,.26,1.38,1,1,0,0,0,1,.41,2.7,2.7,0,0,0,.62-.11l.22,1.17a2.67,2.67,0,0,1-.57.13,4.4,4.4,0,0,1-.59.05A2.17,2.17,0,0,1,133.73,33.58Z"/><path class="cls-1" d="M139.94,27.44v.27a6,6,0,0,0,1.18,4,4.29,4.29,0,0,0,3.44,1.38,8,8,0,0,0,1.88-.23,7.53,7.53,0,0,0,1.71-.62l.36,1.08a8.32,8.32,0,0,1-1.88.72,9.76,9.76,0,0,1-2.36.25,6.08,6.08,0,0,1-3.15-.77,4.94,4.94,0,0,1-2-2.24,8.52,8.52,0,0,1-.67-3.51,8.79,8.79,0,0,1,.68-3.6,5.29,5.29,0,0,1,1.9-2.31,5.09,5.09,0,0,1,2.83-.79,4.52,4.52,0,0,1,2.72.8A4.76,4.76,0,0,1,148.24,24a7.33,7.33,0,0,1,.52,2.79v.7Zm1.34-4.18a5.29,5.29,0,0,0-1.26,3h7.28a5,5,0,0,0-1-3.06,3.08,3.08,0,0,0-2.44-1A3.39,3.39,0,0,0,141.28,23.26Z"/><path class="cls-1" d="M152.26,24.56c0-.48,0-1,0-1.6s0-1-.05-1.14l0-.5h1.27c.05.34.09.75.13,1.23s.06.88.08,1.22a12.61,12.61,0,0,1,1.1-1.45,4.11,4.11,0,0,1,1.17-.9,3.2,3.2,0,0,1,1.51-.35,4,4,0,0,1,1.16.17l-.23,1.27a3.7,3.7,0,0,0-1-.13,2.92,2.92,0,0,0-1.33.3,4,4,0,0,0-1.15.88,15.25,15.25,0,0,0-1.23,1.55v8.94h-1.4Z"/><path class="cls-2" d="M29.41.19A6.4,6.4,0,0,0,27.8,0a8.55,8.55,0,0,0-1.72.19,9.93,9.93,0,0,0-1.65.53A6.41,6.41,0,0,0,23,1.56a3.58,3.58,0,0,0-.56.53,3,3,0,0,0-.39.54,2.12,2.12,0,0,0-.19.55,1.51,1.51,0,0,0,0,.52h0a1.51,1.51,0,0,1,0,.52,2.06,2.06,0,0,1-.19.54,2.53,2.53,0,0,1-.37.55,4.28,4.28,0,0,1-.57.55,5.87,5.87,0,0,1-.73.51,9.19,9.19,0,0,1-.83.42c-.3.12-.6.23-.91.33s-.64.17-1,.23h0a8.9,8.9,0,0,0-1,.24,8.72,8.72,0,0,0-1,.36,7.76,7.76,0,0,0-.91.46A6.19,6.19,0,0,0,13.6,9a4.89,4.89,0,0,0-.7.65,4.4,4.4,0,0,0-.51.67,3.13,3.13,0,0,0-.3.68,2.5,2.5,0,0,0-.09.66,2.09,2.09,0,0,1-.11.63,2.76,2.76,0,0,1-.3.66,4,4,0,0,1-.49.66,4.86,4.86,0,0,1-.69.66,6,6,0,0,1-.86.6c-.31.18-.63.35-1,.5s-.68.27-1,.38a10.05,10.05,0,0,1-1,.26h0a8.37,8.37,0,0,0-1.1.26,11.22,11.22,0,0,0-1.1.41,12,12,0,0,0-1.07.55,10,10,0,0,0-1,.69,7.52,7.52,0,0,0-1.45,1.5A4.64,4.64,0,0,0,.07,21a2.66,2.66,0,0,0,.07,1.46,2.3,2.3,0,0,0,1,1.14A3.68,3.68,0,0,0,2,24a5.08,5.08,0,0,0,1,.18,6.85,6.85,0,0,0,1.11,0A10,10,0,0,0,5.25,24l0,0a8,8,0,0,1,1.16-.19,5.72,5.72,0,0,1,1.09,0,4.63,4.63,0,0,1,1,.17,3.64,3.64,0,0,1,.88.37,2.7,2.7,0,0,1,.69.55,2.58,2.58,0,0,1,.47.71,3.29,3.29,0,0,1,.23.83,3.79,3.79,0,0,1,0,.95l0,0a3.73,3.73,0,0,0,0,1,3.48,3.48,0,0,0,.25,1,3.53,3.53,0,0,0,.55.85,3.71,3.71,0,0,0,.84.72,5.24,5.24,0,0,0,2.17.75,7.61,7.61,0,0,0,2.55-.11,9.57,9.57,0,0,0,2.54-.92A8.7,8.7,0,0,0,21.84,29a6.32,6.32,0,0,0,1.33-2,4.28,4.28,0,0,0,.32-2,3.39,3.39,0,0,0-.61-1.68,4,4,0,0,0-1.47-1.22,5.57,5.57,0,0,0-1.06-.38,7.2,7.2,0,0,0-1.16-.18,8.22,8.22,0,0,0-1.21,0,9,9,0,0,0-1.23.21l0,0a8.08,8.08,0,0,1-1.18.2,7,7,0,0,1-1.12,0,4.92,4.92,0,0,1-1-.16,3.65,3.65,0,0,1-.89-.34A2.77,2.77,0,0,1,12,21a2.4,2.4,0,0,1-.69-1.11,2.25,2.25,0,0,1-.09-.64,1.74,1.74,0,0,0,.05-.22,1.55,1.55,0,0,0,0-.21,1.65,1.65,0,0,0,0-.21,1.48,1.48,0,0,0,0-.21l0,0a2.94,2.94,0,0,1,.12-.77,3.4,3.4,0,0,1,.32-.77,4.9,4.9,0,0,1,.51-.74,6.74,6.74,0,0,1,1.58-1.33,8.64,8.64,0,0,1,2-.88,7.8,7.8,0,0,1,1.06-.26h0l.18,0,.17,0,.18,0,.17-.05c.33-.06.67-.11,1-.14a7.82,7.82,0,0,1,1,0,5,5,0,0,1,.89.11,5.21,5.21,0,0,1,.82.24,4.11,4.11,0,0,1,.72.41,2.66,2.66,0,0,1,.53.53,2.05,2.05,0,0,1,.33.64,2.42,2.42,0,0,1,.13.72l0,0a2.43,2.43,0,0,0,.12.77,3.07,3.07,0,0,0,.37.72,3.35,3.35,0,0,0,.62.63,4.17,4.17,0,0,0,.88.52,6.16,6.16,0,0,0,2.09.5A8.67,8.67,0,0,0,29.37,19a8.42,8.42,0,0,0,2.21-.78,6.44,6.44,0,0,0,1.79-1.3,4.09,4.09,0,0,0,1-1.57,2.62,2.62,0,0,0-.72-2.77,4.13,4.13,0,0,0-1.51-.9,6,6,0,0,0-1-.27,7.89,7.89,0,0,0-1.1-.1,8.35,8.35,0,0,0-1.11.06,8.47,8.47,0,0,0-1.12.2l0,0a8.15,8.15,0,0,1-1.08.19,7.31,7.31,0,0,1-1,.05,5.18,5.18,0,0,1-1-.09,4.23,4.23,0,0,1-.88-.24,3.4,3.4,0,0,1-.66-.34,2.57,2.57,0,0,1-.49-.42,2.42,2.42,0,0,1-.32-.49,1.8,1.8,0,0,1-.15-.55.73.73,0,0,0,0-.24.49.49,0,0,0,0-.12s0-.08,0-.12h0a2.08,2.08,0,0,1,0-.61,2.51,2.51,0,0,1,.19-.61,3.4,3.4,0,0,1,.39-.6,3.45,3.45,0,0,1,.57-.58,6.58,6.58,0,0,1,.72-.51,5.87,5.87,0,0,1,.83-.42,6.9,6.9,0,0,1,.9-.33,7.48,7.48,0,0,1,1-.24h0l.17,0,.17,0,.16,0,.17,0C27.69,5,28,5,28.3,5s.6,0,.89,0a6,6,0,0,1,.86.06,5.16,5.16,0,0,1,.8.17,4.44,4.44,0,0,1,.73.3,3,3,0,0,1,.56.41,2,2,0,0,1,.6,1.05h0a2.08,2.08,0,0,0,.22.6,2.42,2.42,0,0,0,.43.55,3.88,3.88,0,0,0,.66.48,5.41,5.41,0,0,0,.87.38,7.23,7.23,0,0,0,2,.33A9.45,9.45,0,0,0,39.07,9a8.79,8.79,0,0,0,2-.67,5.27,5.27,0,0,0,1.5-1.07A2.62,2.62,0,0,0,43.27,6a1.77,1.77,0,0,0-.11-1.18,2.57,2.57,0,0,0-.86-1,4.75,4.75,0,0,0-1.52-.67,7.87,7.87,0,0,0-1-.18,9,9,0,0,0-2.07,0,8.36,8.36,0,0,0-1,.19l0,0c-.33.08-.66.13-1,.18a7.89,7.89,0,0,1-1,.06,7.08,7.08,0,0,1-.93,0A5.56,5.56,0,0,1,33,3.24,3.74,3.74,0,0,1,32.31,3a2.49,2.49,0,0,1-.51-.33,1.6,1.6,0,0,1-.36-.38,1.59,1.59,0,0,1-.22-.43,1.44,1.44,0,0,0-.14-.54,1.92,1.92,0,0,0-.36-.46,2.39,2.39,0,0,0-.56-.38,3.66,3.66,0,0,0-.75-.28"/><path class="cls-3" d="M53.45,6.55a9.44,9.44,0,0,0-2.24-.3,10.5,10.5,0,0,0-2.19.2,8.2,8.2,0,0,0-1.94.66A5.39,5.39,0,0,0,45.6,8.19a2.89,2.89,0,0,0-.72,1.35A2.35,2.35,0,0,0,45,10.92a3.42,3.42,0,0,0,1,1.26,6.18,6.18,0,0,0,1.87,1,9.58,9.58,0,0,0,2.4.42,9.86,9.86,0,0,0,2.44-.19,7.67,7.67,0,0,0,2.13-.76,4.36,4.36,0,0,0,1.51-1.24A2.46,2.46,0,0,0,57,9.91a2.31,2.31,0,0,0-.41-1.39,4,4,0,0,0-1.22-1.17,7.2,7.2,0,0,0-1.9-.8"/><path class="cls-4" d="M34.91,28.7A7.42,7.42,0,0,0,32.38,28a8.32,8.32,0,0,0-2.63.13,8.8,8.8,0,0,0-2.51.91,8.11,8.11,0,0,0-2.13,1.66,6.92,6.92,0,0,0-1.36,2.19,5.53,5.53,0,0,0-.34,2.36,5.13,5.13,0,0,0,.72,2.27A5.79,5.79,0,0,0,26,39.36a7,7,0,0,0,2.72,1,8.42,8.42,0,0,0,3-.07,8.91,8.91,0,0,0,2.85-1.09,7.94,7.94,0,0,0,2.25-2A6.31,6.31,0,0,0,38,34.74a5.34,5.34,0,0,0,0-2.42,5.21,5.21,0,0,0-1.07-2.09,6,6,0,0,0-2-1.53"/></g></g></svg>