<?xml version="1.0" encoding="UTF-8" standalone="no"?>
<svg
   viewBox="0 0 158.57 40.47"
   version="1.1"
   id="svg39"
   sodipodi:docname="openEuler.svg"
   inkscape:version="1.1 (c4e8f9ed74, 2021-05-24)"
   xmlns:inkscape="http://www.inkscape.org/namespaces/inkscape"
   xmlns:sodipodi="http://sodipodi.sourceforge.net/DTD/sodipodi-0.dtd"
   xmlns:xlink="http://www.w3.org/1999/xlink"
   xmlns="http://www.w3.org/2000/svg"
   xmlns:svg="http://www.w3.org/2000/svg">
  <sodipodi:namedview
     id="namedview41"
     pagecolor="#ffffff"
     bordercolor="#666666"
     borderopacity="1.0"
     inkscape:pageshadow="2"
     inkscape:pageopacity="0.0"
     inkscape:pagecheckerboard="0"
     showgrid="false"
     inkscape:zoom="11.092892"
     inkscape:cx="74.2818"
     inkscape:cy="35.428091"
     inkscape:window-width="2240"
     inkscape:window-height="1303"
     inkscape:window-x="0"
     inkscape:window-y="0"
     inkscape:window-maximized="1"
     inkscape:current-layer="svg39" />
  <defs
     id="defs11">
    <linearGradient
       id="linearGradient1174"
       y1="15.83"
       x2="43.32"
       y2="15.83"
       gradientUnits="userSpaceOnUse">
      <stop
         offset="0"
         stop-color="#27aae1"
         id="stop1170"
         style="stop-color:#04befe;stop-opacity:1" />
      <stop
         offset="1"
         stop-color="#069"
         id="stop1172"
         style="stop-color:#4481eb;stop-opacity:1" />
    </linearGradient>
    <style
       id="style2">.cls-1{fill:#3f3f3f;}.cls-2{fill:url(#New_Gradient_Swatch_1);}.cls-3{fill:url(#New_Gradient_Swatch_1-2);}.cls-4{fill:url(#New_Gradient_Swatch_1-3);}</style>
    <linearGradient
       id="New_Gradient_Swatch_1"
       y1="15.83"
       x2="43.32"
       y2="15.83"
       gradientUnits="userSpaceOnUse">
      <stop
         offset="0"
         stop-color="#27aae1"
         id="stop4" />
      <stop
         offset="1"
         stop-color="#069"
         id="stop6" />
    </linearGradient>
    <linearGradient
       id="New_Gradient_Swatch_1-2"
       x1="44.84"
       y1="9.91"
       x2="56.98"
       y2="9.91"
       xlink:href="#New_Gradient_Swatch_1" />
    <linearGradient
       id="New_Gradient_Swatch_1-3"
       x1="28.500448"
       y1="-0.00029038523"
       x2="28.500448"
       y2="40.462016"
       xlink:href="#linearGradient1174"
       gradientUnits="userSpaceOnUse" />
  </defs>
  <path
     class="cls-1"
     d="m 54.37,33.55 a 5.29,5.29 0 0 1 -2.22,-2.2 7.3,7.3 0 0 1 -0.81,-3.57 7.84,7.84 0 0 1 0.81,-3.68 5.66,5.66 0 0 1 2.25,-2.37 6.66,6.66 0 0 1 3.32,-0.81 6.43,6.43 0 0 1 3.26,0.8 5.6,5.6 0 0 1 2.2,2.28 7.84,7.84 0 0 1 0.82,3.65 7.49,7.49 0 0 1 -0.81,3.61 5.43,5.43 0 0 1 -2.27,2.26 6.81,6.81 0 0 1 -3.3,0.77 6.73,6.73 0 0 1 -3.25,-0.74 z m 6.08,-5.77 a 6,6 0 0 0 -0.7,-3.18 2.32,2.32 0 0 0 -2.11,-1.12 2.29,2.29 0 0 0 -2.12,1.13 6,6 0 0 0 -0.69,3.12 5,5 0 0 0 0.75,3 2.52,2.52 0 0 0 2.18,1 q 2.68,0 2.69,-3.95 z"
     id="path13" />
  <path
     class="cls-1"
     d="m 65.48,24.35 q 0,-1.47 -0.09,-3.18 h 3.26 a 9.92,9.92 0 0 1 0.23,1.66 6.24,6.24 0 0 1 1.73,-1.4 4.73,4.73 0 0 1 4.53,0.14 4.64,4.64 0 0 1 1.76,2 8.07,8.07 0 0 1 0.67,3.52 8.67,8.67 0 0 1 -0.8,3.92 5.62,5.62 0 0 1 -2.22,2.44 6.35,6.35 0 0 1 -3.24,0.83 8,8 0 0 1 -2.4,-0.4 v 5.26 l -3.43,0.25 z m 7.76,6.32 a 5.51,5.51 0 0 0 0.84,-3.32 4.76,4.76 0 0 0 -0.67,-2.86 2.14,2.14 0 0 0 -1.79,-0.88 2.84,2.84 0 0 0 -1.41,0.36 5.8,5.8 0 0 0 -1.3,1 v 6.43 a 3.81,3.81 0 0 0 0.9,0.29 4.83,4.83 0 0 0 1.06,0.11 2.76,2.76 0 0 0 2.37,-1.13 z"
     id="path15" />
  <path
     class="cls-1"
     d="m 90,28.18 h -8.29 a 4,4 0 0 0 1.08,2.69 3.63,3.63 0 0 0 2.53,0.84 8.15,8.15 0 0 0 1.87,-0.22 10.74,10.74 0 0 0 1.81,-0.58 l 0.74,2.31 a 11.56,11.56 0 0 1 -5,1.07 6.46,6.46 0 0 1 -4.85,-1.69 6.61,6.61 0 0 1 -1.65,-4.8 8.18,8.18 0 0 1 0.76,-3.7 5.65,5.65 0 0 1 2.16,-2.37 6.24,6.24 0 0 1 3.2,-0.81 5.45,5.45 0 0 1 3.16,0.87 5.13,5.13 0 0 1 1.88,2.35 8.48,8.48 0 0 1 0.6,3.28 z M 86.72,26.1 A 3.29,3.29 0 0 0 86,24 a 2.12,2.12 0 0 0 -1.67,-0.7 2.23,2.23 0 0 0 -1.69,0.69 3.79,3.79 0 0 0 -0.89,2.09 z"
     id="path17" />
  <path
     class="cls-1"
     d="m 91.55,24.43 c 0,-1.2 0,-2.29 -0.1,-3.26 h 3.24 c 0,0.26 0.1,0.59 0.14,1 0.04,0.41 0.07,0.74 0.09,1 a 11.32,11.32 0 0 1 1.16,-1.17 4.67,4.67 0 0 1 1.35,-0.79 4.84,4.84 0 0 1 1.81,-0.31 4,4 0 0 1 2.16,0.55 3.56,3.56 0 0 1 1.39,1.65 6.46,6.46 0 0 1 0.49,2.67 v 8.26 H 99.89 V 26 A 3,3 0 0 0 99.42,24.16 1.69,1.69 0 0 0 98.02,23.57 3.11,3.11 0 0 0 96.41,24 6.86,6.86 0 0 0 95,25.22 v 8.83 h -3.45 z"
     id="path19" />
  <path
     class="cls-1"
     d="m 106.14,16.81 h 9.47 l -0.29,1.31 h -7.73 v 6.35 h 7.34 v 1.29 h -7.34 v 7 h 8.1 l -0.25,1.32 h -9.3 z"
     id="path21" />
  <path
     class="cls-1"
     d="m 119.82,33.08 a 5.93,5.93 0 0 1 -0.93,-3.65 v -8.11 h 1.39 v 8.06 a 4.48,4.48 0 0 0 0.7,2.8 2.46,2.46 0 0 0 2,0.89 4.64,4.64 0 0 0 2.33,-0.65 8.62,8.62 0 0 0 2,-1.62 v -9.48 h 1.4 v 9.52 c 0,0.89 0,2 0.11,3.21 h -1.23 q -0.08,-0.46 -0.24,-1.95 a 9.78,9.78 0 0 1 -2.15,1.59 5.21,5.21 0 0 1 -2.52,0.6 3.45,3.45 0 0 1 -2.86,-1.21 z"
     id="path23" />
  <path
     class="cls-1"
     d="m 133.73,33.58 a 3.22,3.22 0 0 1 -0.59,-2.11 V 15.78 l 1.42,-0.24 v 15.7 a 2.7,2.7 0 0 0 0.26,1.38 1,1 0 0 0 1,0.41 2.7,2.7 0 0 0 0.62,-0.11 l 0.22,1.17 a 2.67,2.67 0 0 1 -0.57,0.13 4.4,4.4 0 0 1 -0.59,0.05 2.17,2.17 0 0 1 -1.77,-0.69 z"
     id="path25" />
  <path
     class="cls-1"
     d="m 139.94,27.44 v 0.27 a 6,6 0 0 0 1.18,4 4.29,4.29 0 0 0 3.44,1.38 8,8 0 0 0 1.88,-0.23 7.53,7.53 0 0 0 1.71,-0.62 l 0.36,1.08 a 8.32,8.32 0 0 1 -1.88,0.72 9.76,9.76 0 0 1 -2.36,0.25 6.08,6.08 0 0 1 -3.15,-0.77 4.94,4.94 0 0 1 -2,-2.24 8.52,8.52 0 0 1 -0.67,-3.51 8.79,8.79 0 0 1 0.68,-3.6 5.29,5.29 0 0 1 1.9,-2.31 5.09,5.09 0 0 1 2.83,-0.79 4.52,4.52 0 0 1 2.72,0.8 4.76,4.76 0 0 1 1.66,2.13 7.33,7.33 0 0 1 0.52,2.79 v 0.7 z m 1.34,-4.18 a 5.29,5.29 0 0 0 -1.26,3 h 7.28 a 5,5 0 0 0 -1,-3.06 3.08,3.08 0 0 0 -2.44,-1 3.39,3.39 0 0 0 -2.58,1.06 z"
     id="path27" />
  <path
     class="cls-1"
     d="m 152.26,24.56 c 0,-0.48 0,-1 0,-1.6 0,-0.6 0,-1 -0.05,-1.14 v -0.5 h 1.27 c 0.05,0.34 0.09,0.75 0.13,1.23 0.04,0.48 0.06,0.88 0.08,1.22 a 12.61,12.61 0 0 1 1.1,-1.45 4.11,4.11 0 0 1 1.17,-0.9 3.2,3.2 0 0 1 1.51,-0.35 4,4 0 0 1 1.16,0.17 l -0.23,1.27 a 3.7,3.7 0 0 0 -1,-0.13 2.92,2.92 0 0 0 -1.33,0.3 4,4 0 0 0 -1.15,0.88 15.25,15.25 0 0 0 -1.23,1.55 v 8.94 h -1.4 z"
     id="path29" />
  <path
     id="path35"
     style="fill:url(#New_Gradient_Swatch_1-3)"
     class="cls-4"
     d="m 34.91,28.7 a 7.42,7.42 0 0 0 -2.53,-0.7 8.32,8.32 0 0 0 -2.63,0.13 8.8,8.8 0 0 0 -2.51,0.91 8.11,8.11 0 0 0 -2.13,1.66 6.92,6.92 0 0 0 -1.36,2.19 5.53,5.53 0 0 0 -0.34,2.36 5.13,5.13 0 0 0 0.72,2.27 5.79,5.79 0 0 0 1.87,1.84 7,7 0 0 0 2.72,1 8.42,8.42 0 0 0 3,-0.07 8.91,8.91 0 0 0 2.85,-1.09 7.94,7.94 0 0 0 2.25,-2 6.31,6.31 0 0 0 1.18,-2.46 5.34,5.34 0 0 0 0,-2.42 5.21,5.21 0 0 0 -1.07,-2.09 6,6 0 0 0 -2,-1.53 M 53.45,6.55 a 9.44,9.44 0 0 0 -2.24,-0.3 10.5,10.5 0 0 0 -2.19,0.2 8.2,8.2 0 0 0 -1.94,0.66 5.39,5.39 0 0 0 -1.48,1.08 2.89,2.89 0 0 0 -0.72,1.35 2.35,2.35 0 0 0 0.12,1.38 3.42,3.42 0 0 0 1,1.26 6.18,6.18 0 0 0 1.87,1 9.58,9.58 0 0 0 2.4,0.42 9.86,9.86 0 0 0 2.44,-0.19 7.67,7.67 0 0 0 2.13,-0.76 4.36,4.36 0 0 0 1.51,-1.24 A 2.46,2.46 0 0 0 57,9.91 2.31,2.31 0 0 0 56.59,8.52 4,4 0 0 0 55.37,7.35 7.2,7.2 0 0 0 53.47,6.55 M 29.41,0.19 A 6.4,6.4 0 0 0 27.8,0 8.55,8.55 0 0 0 26.08,0.19 9.93,9.93 0 0 0 24.43,0.72 6.41,6.41 0 0 0 23,1.56 a 3.58,3.58 0 0 0 -0.56,0.53 3,3 0 0 0 -0.39,0.54 2.12,2.12 0 0 0 -0.19,0.55 1.51,1.51 0 0 0 0,0.52 v 0 a 1.51,1.51 0 0 1 0,0.52 A 2.06,2.06 0 0 1 21.67,4.76 2.53,2.53 0 0 1 21.3,5.31 4.28,4.28 0 0 1 20.73,5.86 5.87,5.87 0 0 1 20,6.37 9.19,9.19 0 0 1 19.17,6.79 c -0.3,0.12 -0.6,0.23 -0.91,0.33 -0.31,0.1 -0.64,0.17 -1,0.23 v 0 a 8.9,8.9 0 0 0 -1,0.24 8.72,8.72 0 0 0 -1,0.36 A 7.76,7.76 0 0 0 14.35,8.41 6.19,6.19 0 0 0 13.6,9 4.89,4.89 0 0 0 12.9,9.65 4.4,4.4 0 0 0 12.39,10.32 3.13,3.13 0 0 0 12.09,11 2.5,2.5 0 0 0 12,11.66 a 2.09,2.09 0 0 1 -0.11,0.63 2.76,2.76 0 0 1 -0.3,0.66 4,4 0 0 1 -0.49,0.66 4.86,4.86 0 0 1 -0.69,0.66 6,6 0 0 1 -0.86,0.6 c -0.31,0.18 -0.63,0.35 -1,0.5 -0.37,0.15 -0.68,0.27 -1,0.38 a 10.05,10.05 0 0 1 -1,0.26 v 0 a 8.37,8.37 0 0 0 -1.1,0.26 11.22,11.22 0 0 0 -1.1,0.41 12,12 0 0 0 -1.07,0.55 10,10 0 0 0 -1,0.69 7.52,7.52 0 0 0 -1.45,1.5 4.64,4.64 0 0 0 -0.76,1.58 2.66,2.66 0 0 0 0.07,1.46 2.3,2.3 0 0 0 1,1.14 3.68,3.68 0 0 0 0.86,0.4 5.08,5.08 0 0 0 1,0.18 6.85,6.85 0 0 0 1.11,0 A 10,10 0 0 0 5.25,24 v 0 a 8,8 0 0 1 1.16,-0.19 5.72,5.72 0 0 1 1.09,0 4.63,4.63 0 0 1 1,0.17 3.64,3.64 0 0 1 0.88,0.37 2.7,2.7 0 0 1 0.69,0.55 2.58,2.58 0 0 1 0.47,0.71 3.29,3.29 0 0 1 0.23,0.83 3.79,3.79 0 0 1 0,0.95 v 0 a 3.73,3.73 0 0 0 0,1 3.48,3.48 0 0 0 0.25,1 3.53,3.53 0 0 0 0.55,0.85 3.71,3.71 0 0 0 0.84,0.72 5.24,5.24 0 0 0 2.17,0.75 7.61,7.61 0 0 0 2.55,-0.11 9.57,9.57 0 0 0 2.54,-0.92 8.7,8.7 0 0 0 2.17,-1.68 6.32,6.32 0 0 0 1.33,-2 4.28,4.28 0 0 0 0.32,-2 3.39,3.39 0 0 0 -0.61,-1.68 4,4 0 0 0 -1.47,-1.22 5.57,5.57 0 0 0 -1.06,-0.38 7.2,7.2 0 0 0 -1.16,-0.18 8.22,8.22 0 0 0 -1.21,0 9,9 0 0 0 -1.23,0.21 v 0 a 8.08,8.08 0 0 1 -1.18,0.2 7,7 0 0 1 -1.12,0 4.92,4.92 0 0 1 -1,-0.16 A 3.65,3.65 0 0 1 12.56,21.45 2.77,2.77 0 0 1 12,21 a 2.4,2.4 0 0 1 -0.69,-1.11 2.25,2.25 0 0 1 -0.09,-0.64 1.74,1.74 0 0 0 0.05,-0.22 1.55,1.55 0 0 0 0,-0.21 1.65,1.65 0 0 0 0,-0.21 1.48,1.48 0 0 0 0,-0.21 v 0 a 2.94,2.94 0 0 1 0.12,-0.77 3.4,3.4 0 0 1 0.32,-0.77 4.9,4.9 0 0 1 0.51,-0.74 6.74,6.74 0 0 1 1.58,-1.33 8.64,8.64 0 0 1 2,-0.88 7.8,7.8 0 0 1 1.06,-0.26 v 0 h 0.18 0.17 0.18 l 0.17,-0.05 c 0.33,-0.06 0.67,-0.11 1,-0.14 a 7.82,7.82 0 0 1 1,0 5,5 0 0 1 0.89,0.11 5.21,5.21 0 0 1 0.82,0.24 4.11,4.11 0 0 1 0.72,0.41 2.66,2.66 0 0 1 0.53,0.53 2.05,2.05 0 0 1 0.33,0.64 2.42,2.42 0 0 1 0.13,0.72 v 0 a 2.43,2.43 0 0 0 0.12,0.77 3.07,3.07 0 0 0 0.37,0.72 3.35,3.35 0 0 0 0.62,0.63 4.17,4.17 0 0 0 0.88,0.52 6.16,6.16 0 0 0 2.09,0.5 8.67,8.67 0 0 0 2.31,-0.25 8.42,8.42 0 0 0 2.21,-0.78 6.44,6.44 0 0 0 1.79,-1.3 4.09,4.09 0 0 0 1,-1.57 2.62,2.62 0 0 0 -0.72,-2.77 4.13,4.13 0 0 0 -1.51,-0.9 6,6 0 0 0 -1,-0.27 7.89,7.89 0 0 0 -1.1,-0.1 8.35,8.35 0 0 0 -1.11,0.06 8.47,8.47 0 0 0 -1.12,0.2 v 0 a 8.15,8.15 0 0 1 -1.08,0.19 7.31,7.31 0 0 1 -1,0.05 5.18,5.18 0 0 1 -1,-0.09 4.23,4.23 0 0 1 -0.88,-0.24 3.4,3.4 0 0 1 -0.66,-0.34 2.57,2.57 0 0 1 -0.49,-0.42 2.42,2.42 0 0 1 -0.32,-0.49 1.8,1.8 0 0 1 -0.15,-0.55 0.73,0.73 0 0 0 0,-0.24 0.49,0.49 0 0 0 0,-0.12 c 0,0 0,-0.08 0,-0.12 v 0 a 2.08,2.08 0 0 1 0,-0.61 2.51,2.51 0 0 1 0.19,-0.61 3.4,3.4 0 0 1 0.39,-0.6 3.45,3.45 0 0 1 0.57,-0.58 6.58,6.58 0 0 1 0.72,-0.51 5.87,5.87 0 0 1 0.83,-0.42 6.9,6.9 0 0 1 0.9,-0.33 7.48,7.48 0 0 1 1,-0.24 v 0 H 27 27.17 27.33 27.5 C 27.69,5 28,5 28.3,5 c 0.3,0 0.6,0 0.89,0 a 6,6 0 0 1 0.86,0.06 5.16,5.16 0 0 1 0.8,0.17 4.44,4.44 0 0 1 0.73,0.3 3,3 0 0 1 0.56,0.41 2,2 0 0 1 0.6,1.05 v 0 a 2.08,2.08 0 0 0 0.22,0.6 2.42,2.42 0 0 0 0.43,0.55 3.88,3.88 0 0 0 0.66,0.48 5.41,5.41 0 0 0 0.87,0.38 7.23,7.23 0 0 0 2,0.33 9.45,9.45 0 0 0 2.15,-0.33 8.79,8.79 0 0 0 2,-0.67 5.27,5.27 0 0 0 1.5,-1.07 2.62,2.62 0 0 0 0.7,-1.26 1.77,1.77 0 0 0 -0.11,-1.18 2.57,2.57 0 0 0 -0.86,-1 4.75,4.75 0 0 0 -1.52,-0.67 7.87,7.87 0 0 0 -1,-0.18 9,9 0 0 0 -2.07,0 8.36,8.36 0 0 0 -1,0.19 v 0 c -0.33,0.08 -0.66,0.13 -1,0.18 a 7.89,7.89 0 0 1 -1,0.06 7.08,7.08 0 0 1 -0.93,0 A 5.56,5.56 0 0 1 33,3.24 3.74,3.74 0 0 1 32.31,3 2.49,2.49 0 0 1 31.8,2.67 1.6,1.6 0 0 1 31.44,2.29 1.59,1.59 0 0 1 31.22,1.86 1.44,1.44 0 0 0 31.08,1.32 1.92,1.92 0 0 0 30.72,0.86 2.39,2.39 0 0 0 30.16,0.48 3.66,3.66 0 0 0 29.41,0.2" />
</svg>
