<?xml version="1.0" encoding="UTF-8" standalone="no"?>
<!-- Created with Inkscape (http://www.inkscape.org/) -->

<svg
   width="512"
   height="512"
   viewBox="0 0 135.46666 135.46667"
   version="1.1"
   id="svg322"
   inkscape:version="1.1 (c4e8f9ed74, 2021-05-24)"
   sodipodi:docname="openeuler-logo.svg"
   xmlns:inkscape="http://www.inkscape.org/namespaces/inkscape"
   xmlns:sodipodi="http://sodipodi.sourceforge.net/DTD/sodipodi-0.dtd"
   xmlns:xlink="http://www.w3.org/1999/xlink"
   xmlns="http://www.w3.org/2000/svg"
   xmlns:svg="http://www.w3.org/2000/svg">
  <sodipodi:namedview
     id="namedview324"
     pagecolor="#ffffff"
     bordercolor="#666666"
     borderopacity="1.0"
     inkscape:pageshadow="2"
     inkscape:pageopacity="0.0"
     inkscape:pagecheckerboard="0"
     inkscape:document-units="mm"
     showgrid="false"
     units="px"
     inkscape:zoom="1.1759259"
     inkscape:cx="488.97639"
     inkscape:cy="187.93701"
     inkscape:window-width="2240"
     inkscape:window-height="1303"
     inkscape:window-x="0"
     inkscape:window-y="0"
     inkscape:window-maximized="1"
     inkscape:current-layer="layer1" />
  <defs
     id="defs319">
    <linearGradient
       inkscape:collect="always"
       id="linearGradient4439">
      <stop
         style="stop-color:#04befe;stop-opacity:1"
         offset="0"
         id="stop4433" />
      <stop
         style="stop-color:#4481eb;stop-opacity:1"
         offset="1"
         id="stop4437" />
    </linearGradient>
    <linearGradient
       inkscape:collect="always"
       id="linearGradient712">
      <stop
         style="stop-color:#2b86c5;stop-opacity:1"
         offset="0"
         id="stop708" />
      <stop
         style="stop-color:#784ba0;stop-opacity:1"
         offset="0.51439482"
         id="stop1962" />
      <stop
         style="stop-color:#ff3cac;stop-opacity:1"
         offset="1"
         id="stop710" />
    </linearGradient>
    <linearGradient
       inkscape:collect="always"
       xlink:href="#linearGradient712"
       id="linearGradient714"
       x1="60.339382"
       y1="86.825447"
       x2="87.873428"
       y2="55.983463"
       gradientUnits="userSpaceOnUse" />
    <linearGradient
       inkscape:collect="always"
       xlink:href="#linearGradient4439"
       id="linearGradient3454"
       gradientUnits="userSpaceOnUse"
       x1="74.597182"
       y1="59.600681"
       x2="74.597182"
       y2="83.500799" />
  </defs>
  <g
     inkscape:label="图层 1"
     inkscape:groupmode="layer"
     id="layer1">
    <g
       id="g3542">
      <g
         id="g350"
         transform="matrix(3.4203039,0,0,3.4203039,-187.4117,-176.99194)"
         style="fill-opacity:1;fill:url(#linearGradient714)">
        <path
           id="path28"
           style="fill:url(#linearGradient3454);stroke-width:0.264583;fill-opacity:1"
           class="cls-1"
           d="m 78.383128,76.550431 a 4.4106041,4.4106041 0 0 0 -1.4949,-0.428625 5.1329166,5.1329166 0 0 0 -1.55575,0.07937 5.2228749,5.2228749 0 0 0 -1.47902,0.529167 4.8021874,4.8021874 0 0 0 -1.25941,0.981604 3.9449375,3.9449375 0 0 0 -0.79375,1.293812 3.3152291,3.3152291 0 0 0 -0.20373,1.394355 3.0665208,3.0665208 0 0 0 0.42862,1.338791 3.3946041,3.3946041 0 0 0 1.09538,1.100667 4.1777708,4.1777708 0 0 0 1.60337,0.592667 5.0747083,5.0747083 0 0 0 1.76742,-0.01852 5.2440416,5.2440416 0 0 0 1.68275,-0.642938 4.6884166,4.6884166 0 0 0 1.32292,-1.177396 3.7517916,3.7517916 0 0 0 0.69056,-1.463145 3.1458958,3.1458958 0 0 0 -0.0159,-1.431396 3.0903333,3.0903333 0 0 0 -0.6297,-1.232959 3.5612916,3.5612916 0 0 0 -1.16682,-0.902229 m 10.95377,-13.094225 a 5.4715833,5.4715833 0 0 0 -1.32291,-0.177271 5.9478333,5.9478333 0 0 0 -1.29382,0.119063 4.7281041,4.7281041 0 0 0 -1.143,0.391583 2.9924375,2.9924375 0 0 0 -0.87312,0.637646 1.651,1.651 0 0 0 -0.42598,0.79375 1.3229166,1.3229166 0 0 0 0.0952,0.812271 1.9949583,1.9949583 0 0 0 0.6059,0.743479 3.6247916,3.6247916 0 0 0 1.10331,0.566208 5.4054374,5.4054374 0 0 0 1.41816,0.248709 5.7652708,5.7652708 0 0 0 1.43934,-0.111125 4.6804791,4.6804791 0 0 0 1.27529,-0.4445 2.7410833,2.7410833 0 0 0 0.89165,-0.73025 1.5028333,1.5028333 0 0 0 0.33072,-0.867834 1.4075833,1.4075833 0 0 0 -0.24341,-0.820208 2.3495,2.3495 0 0 0 -0.72231,-0.687917 4.0798749,4.0798749 0 0 0 -1.12184,-0.473604 m -14.21601,-3.757083 a 3.52425,3.52425 0 0 0 -0.94192,-0.111125 5.1038124,5.1038124 0 0 0 -1.01335,0.113771 5.4848124,5.4848124 0 0 0 -0.97896,0.312208 4.0454791,4.0454791 0 0 0 -0.83608,0.492125 2.5929166,2.5929166 0 0 0 -0.33602,0.314854 1.8309166,1.8309166 0 0 0 -0.2249,0.322792 1.2250208,1.2250208 0 0 0 -0.11377,0.320146 0.88370832,0.88370832 0 0 0 0,0.312208 v 0 a 0.90487499,0.90487499 0 0 1 0,0.304271 1.2065,1.2065 0 0 1 -0.10848,0.320146 1.7092083,1.7092083 0 0 1 -0.22225,0.328083 2.6087916,2.6087916 0 0 1 -0.33337,0.325438 3.7465,3.7465 0 0 1 -0.44715,0.293687 4.4979166,4.4979166 0 0 1 -0.49213,0.248708 5.2202291,5.2202291 0 0 1 -0.52916,0.193146 c -0.18521,0.05556 -0.37306,0.103188 -0.56356,0.140229 v 0 a 5.7044166,5.7044166 0 0 0 -0.58473,0.142875 5.1091041,5.1091041 0 0 0 -0.5715,0.209021 4.4820416,4.4820416 0 0 0 -0.52917,0.264584 4.0613541,4.0613541 0 0 0 -0.50271,0.333375 3.4395833,3.4395833 0 0 0 -0.41539,0.381 2.5743958,2.5743958 0 0 0 -0.29634,0.41275 1.7145,1.7145 0 0 0 -0.17727,0.402166 1.1800417,1.1800417 0 0 0 -0.0529,0.388938 1.4975416,1.4975416 0 0 1 -0.0661,0.375708 1.93675,1.93675 0 0 1 -0.17727,0.388938 2.4950208,2.4950208 0 0 1 -0.29104,0.391583 3.3443333,3.3443333 0 0 1 -0.40482,0.386292 4.0772291,4.0772291 0 0 1 -0.51064,0.354541 4.2730208,4.2730208 0 0 1 -0.56886,0.293688 5.3736874,5.3736874 0 0 1 -0.60589,0.227541 5.7467499,5.7467499 0 0 1 -0.62177,0.150813 h 0.0159 a 5.3578124,5.3578124 0 0 0 -0.64823,0.156104 5.6567916,5.6567916 0 0 0 -0.64823,0.240771 6.2124166,6.2124166 0 0 0 -0.63235,0.325437 5.6038749,5.6038749 0 0 0 -0.59267,0.415396 4.3471041,4.3471041 0 0 0 -0.85989,0.886354 2.6458333,2.6458333 0 0 0 -0.43392,0.926042 1.4737291,1.4737291 0 0 0 0.0423,0.859896 1.3626041,1.3626041 0 0 0 0.56886,0.677333 2.0452291,2.0452291 0 0 0 0.50006,0.224896 2.9765625,2.9765625 0 0 0 0.59267,0.111125 4.2333333,4.2333333 0 0 0 0.65881,0 5.0773541,5.0773541 0 0 0 0.69585,-0.113771 l -0.0212,0.02117 a 4.9477083,4.9477083 0 0 1 0.68527,-0.116417 4.1036874,4.1036874 0 0 1 0.64823,0 3.0136041,3.0136041 0 0 1 0.59266,0.100542 2.2304375,2.2304375 0 0 1 0.52917,0.216958 1.8018125,1.8018125 0 0 1 0.40746,0.328083 1.6562916,1.6562916 0 0 1 0.26458,0.418042 1.7753541,1.7753541 0 0 1 0.13759,0.486833 2.1722291,2.1722291 0 0 1 0,0.555625 l 0.0212,-0.01852 a 2.2489583,2.2489583 0 0 0 0,0.595312 2.0690416,2.0690416 0 0 0 0.14552,0.552979 2.0214166,2.0214166 0 0 0 0.32279,0.505354 2.2463125,2.2463125 0 0 0 0.49742,0.423334 3.1141458,3.1141458 0 0 0 1.28058,0.441854 4.6011041,4.6011041 0 0 0 1.50284,-0.0635 5.5562499,5.5562499 0 0 0 1.50283,-0.545042 5.1487916,5.1487916 0 0 0 1.28058,-0.963083 3.7385625,3.7385625 0 0 0 0.79375,-1.185333 2.50825,2.50825 0 0 0 0.18786,-1.153584 1.9817291,1.9817291 0 0 0 -0.37306,-0.997479 2.3098125,2.3098125 0 0 0 -0.86784,-0.719666 3.07975,3.07975 0 0 0 -0.62441,-0.227542 4.0798749,4.0798749 0 0 0 -0.68263,-0.103188 4.5905208,4.5905208 0 0 0 -0.71173,0.01588 5.2916666,5.2916666 0 0 0 -0.7276,0.124355 l 0.0185,-0.01587 a 5.4953958,5.4953958 0 0 1 -0.6985,0.116416 4.3153541,4.3153541 0 0 1 -0.66411,0.01588 3.3734375,3.3734375 0 0 1 -0.60589,-0.0926 2.31775,2.31775 0 0 1 -0.52917,-0.203729 1.698625,1.698625 0 0 1 -0.36248,-0.264583 1.3626041,1.3626041 0 0 1 -0.26458,-0.304271 1.27,1.27 0 0 1 -0.15081,-0.34925 1.5054791,1.5054791 0 0 1 -0.0423,-0.373063 c 0,-0.04233 0.0238,-0.08731 0.0344,-0.129646 0.0106,-0.04233 0.0159,-0.08467 0.0212,-0.127 0.005,-0.04233 0,-0.08202 0,-0.124354 0,-0.04233 0,-0.08202 0,-0.121708 h 0.0212 a 1.8123958,1.8123958 0 0 1 0.0714,-0.455083 2.0743333,2.0743333 0 0 1 0.18785,-0.452438 2.8680833,2.8680833 0 0 1 0.30428,-0.441854 3.683,3.683 0 0 1 0.42068,-0.415396 4.3550416,4.3550416 0 0 1 0.508,-0.367771 5.1778958,5.1778958 0 0 1 0.58209,-0.275166 5.2519791,5.2519791 0 0 1 1.21973,-0.375709 v 0 l 0.10318,-0.01852 0.10054,-0.02117 0.10319,-0.02381 0.10319,-0.02646 a 5.8975624,5.8975624 0 0 1 0.58473,-0.08731 4.4979166,4.4979166 0 0 1 0.56356,0 3.1141458,3.1141458 0 0 1 0.52917,0.06086 2.7834166,2.7834166 0 0 1 0.48419,0.14552 1.9870208,1.9870208 0 0 1 0.42597,0.240771 1.5187083,1.5187083 0 0 1 0.31221,0.312209 1.3758333,1.3758333 0 0 1 0.19579,0.375708 1.42875,1.42875 0 0 1 0.0741,0.428625 l 0.0159,-0.01588 a 1.4790208,1.4790208 0 0 0 0.0767,0.455083 1.5028333,1.5028333 0 0 0 0.21961,0.423334 1.9393958,1.9393958 0 0 0 0.36512,0.373062 2.5505833,2.5505833 0 0 0 0.52917,0.304271 3.6644791,3.6644791 0 0 0 1.2356,0.296333 5.1726041,5.1726041 0 0 0 2.67759,-0.552979 3.921125,3.921125 0 0 0 1.05833,-0.769937 2.4791458,2.4791458 0 0 0 0.57679,-0.926042 1.5875,1.5875 0 0 0 0.0317,-0.889 1.5875,1.5875 0 0 0 -0.4736,-0.767292 2.4421041,2.4421041 0 0 0 -0.89165,-0.529166 3.3734375,3.3734375 0 0 0 -0.60854,-0.15875 4.3391666,4.3391666 0 0 0 -0.64558,-0.06085 5.0905833,5.0905833 0 0 0 -1.32292,0.150813 l 0.0132,-0.01323 a 5.9795833,5.9795833 0 0 1 -0.63236,0.111125 4.8762708,4.8762708 0 0 1 -0.61648,0.0291 3.3575625,3.3575625 0 0 1 -0.5715,-0.05821 2.8363333,2.8363333 0 0 1 -0.52916,-0.14023 2.0108333,2.0108333 0 0 1 -0.39159,-0.201083 1.4075833,1.4075833 0 0 1 -0.26987,-0.243417 1.1879792,1.1879792 0 0 1 -0.18785,-0.291041 1.127125,1.127125 0 0 1 -0.0873,-0.320146 c 0,-0.02381 0,-0.05027 0,-0.07408 a 0.57414583,0.57414583 0 0 0 0,-0.06879 0.64822916,0.64822916 0 0 0 0,-0.07144 0.61912499,0.61912499 0 0 0 0,-0.06879 v 0 a 1.1721042,1.1721042 0 0 1 0,-0.359834 1.4075833,1.4075833 0 0 1 0.11642,-0.362479 1.6880416,1.6880416 0 0 1 0.2249,-0.354541 2.38125,2.38125 0 0 1 0.33602,-0.341313 3.4395833,3.4395833 0 0 1 0.42862,-0.304271 4.4185416,4.4185416 0 0 1 0.47361,-0.238125 4.9265416,4.9265416 0 0 1 0.52916,-0.195791 5.6488541,5.6488541 0 0 1 0.56356,-0.137584 v 0 l 0.10055,-0.02117 0.0979,-0.01852 0.0979,-0.02381 0.0979,-0.02381 c 0.17992,-0.03704 0.35984,-0.06615 0.52917,-0.08467 a 4.4423541,4.4423541 0 0 1 0.52917,-0.02646 3.4713333,3.4713333 0 0 1 0.50535,0.0344 3.0083125,3.0083125 0 0 1 0.47361,0.103187 2.2939375,2.2939375 0 0 1 0.43127,0.177271 1.68275,1.68275 0 0 1 0.33073,0.238125 1.23825,1.23825 0 0 1 0.23018,0.291042 1.1059583,1.1059583 0 0 1 0.12436,0.333375 h 0.0132 a 1.1191875,1.1191875 0 0 0 0.127,0.33602 1.3890625,1.3890625 0 0 0 0.26458,0.325438 1.9949583,1.9949583 0 0 0 0.37571,0.280458 3.0268333,3.0268333 0 0 0 0.52916,0.224896 4.1777708,4.1777708 0 0 0 1.18269,0.193146 5.4477708,5.4477708 0 0 0 1.25677,-0.111125 4.9027291,4.9027291 0 0 0 1.15359,-0.391583 3.2093958,3.2093958 0 0 0 0.889,-0.629709 1.635125,1.635125 0 0 0 0.43391,-0.743479 1.0583333,1.0583333 0 0 0 -0.0688,-0.701146 1.4737291,1.4737291 0 0 0 -0.508,-0.582083 2.7648958,2.7648958 0 0 0 -0.89429,-0.394229 4.1909999,4.1909999 0 0 0 -0.58738,-0.111125 5.1249791,5.1249791 0 0 0 -0.60854,-0.0291 5.3154791,5.3154791 0 0 0 -0.61383,0.04233 5.6409166,5.6409166 0 0 0 -0.60325,0.111125 v 0 a 5.4345416,5.4345416 0 0 1 -0.57944,0.105833 5.2916666,5.2916666 0 0 1 -0.57414,0.03969 4.1301458,4.1301458 0 0 1 -0.54769,-0.02646 2.9977291,2.9977291 0 0 1 -0.50006,-0.111125 2.1457708,2.1457708 0 0 1 -0.39423,-0.148166 1.5107708,1.5107708 0 0 1 -0.30427,-0.177271 1.143,1.143 0 0 1 -0.21432,-0.227542 0.94191665,0.94191665 0 0 1 -0.12435,-0.264583 0.83608332,0.83608332 0 0 0 -0.0873,-0.3175 0.97102082,0.97102082 0 0 0 -0.21167,-0.264583 1.508125,1.508125 0 0 0 -0.33073,-0.248709 2.1298958,2.1298958 0 0 0 -0.44979,-0.153458" />
      </g>
    </g>
  </g>
</svg>
